PathFileType	4	(X/Y/Z)	T1_P2_NoVision_Movement_3_0-732.trc
DataRate	CameraRate	NumFrames	NumMarkers	Units	OrigDataRate	OrigDataStartFrame	OrigNumFrames
60	60	4	27	m	60	366	732
Frame#	Time	RHip			RKnee			RAnkle			RBigToe			RSmallToe			RHeel			LHip			LKnee			LAnkle			LBigToe			LSmallToe			LHeel			Neck			Head			Nose			RShoulder			RElbow			RWrist			RThumb			RIndex			RPinky			LShoulder			LElbow			LWrist			LThumb			LIndex			LPinky		
		X1	Y1	Z1	X2	Y2	Z2	X3	Y3	Z3	X4	Y4	Z4	X5	Y5	Z5	X6	Y6	Z6	X7	Y7	Z7	X8	Y8	Z8	X9	Y9	Z9	X10	Y10	Z10	X11	Y11	Z11	X12	Y12	Z12	X13	Y13	Z13	X14	Y14	Z14	X15	Y15	Z15	X16	Y16	Z16	X17	Y17	Z17	X18	Y18	Z18	X19	Y19	Z19	X20	Y20	Z20	X21	Y21	Z21	X22	Y22	Z22	X23	Y23	Z23	X24	Y24	Z24	X25	Y25	Z25	X26	Y26	Z26	X27	Y27	Z27
367	6.116666666666666	467.04438981396817	3641.3025306001928	565.3704138571517	845.2554054632254	3650.673897887474	561.0051783263027	1235.2642727267107	3698.699040631342	621.0031910683952	1327.1091361754231	3627.5472299116036	605.3362324763334	1290.5685469306766	3613.207296913102	539.3521032399758	1262.7893677773066	3688.1490252218714	623.0570444161219	466.6711467269381	3521.4811330230154	742.1296625923452	879.1218239488076	3552.3439396276976	749.6776952274262	1225.6571583371835	3590.3895097481854	725.517077845418	1317.8635986623256	3543.5058436053446	670.6443655089145	1278.7760792305066	3465.1945908000716	704.817866261557	1267.8682765593037	3616.4918203939483	719.2751182604399	-125.98054369951178	3566.510270451354	679.2973867914335	-384.2889907621925	3520.107105681561	643.9853026047948	-234.7873253709887	3429.3646513251624	595.2036606954752	-40.13691993850015	3648.3485722349515	548.5462639003614	216.44293584105793	3783.047692332675	516.0279039483918	444.1217391627281	3656.698535673511	413.9535606159424	567.0155237018605	3540.6431791203704	392.51034808996104	606.9922254483665	3616.1438335597395	393.6870445073028	593.2343030038448	3683.0252424814025	391.7492509870041	-22.36275544115962	3514.3385615980587	845.8845799299194	243.81768046163683	3465.169752367467	864.5750783952474	488.6842141806398	3436.4970600790552	855.5747991057133	591.4249237094996	3431.4780217503335	819.5093181866091	604.4753004148162	3416.0678373614714	829.83765076219	602.7526339657979	3396.387180163414	869.9101637435494
368	6.133333333333334	468.5258612778153	3650.596419001466	569.2401458819485	845.1680183933049	3631.3773399892593	556.9749658339932	1235.2433963465778	3698.395477590096	620.8642066422392	1331.4076800035855	3637.015261974121	609.1549602575436	1298.258057326144	3633.2828453626844	544.6888637384145	1262.7348850384583	3688.0003348543696	622.9885969046243	468.19275681768147	3530.416510751157	746.5158719706135	875.84055773013	3557.400109288814	752.4816417792877	1225.6326919095914	3590.319722151598	725.537455137955	1317.7696962422258	3543.256213847266	670.6050302465824	1278.654700716695	3464.9928902780493	704.727271411695	1267.9036262975596	3616.7834672338076	719.4944270028712	-125.91083089103168	3566.3087206606237	679.060864191462	-382.7942722088071	3500.32071454918	638.3989318001854	-234.90313300672392	3443.6715528326245	607.6422944637611	-44.73510612527808	3644.2372252026053	546.9247553029805	211.22431038184033	3778.461689485157	514.6220041522032	443.9462865078506	3657.0009620304177	413.98500161473953	565.6190717124078	3539.309543097567	392.342631670313	598.4669396013468	3592.499975413189	388.32035794407346	587.2743272141262	3678.8495521490404	390.56629894773624	-22.359932379250967	3514.332298530543	845.9339152860985	243.72592535967914	3464.884369913742	864.2481092434089	488.6153491067472	3436.293996706	855.3246262653033	591.3149316167385	3430.8503620339384	819.0620971240401	600.4825160189915	3395.4098023993893	822.0610117096476	598.9160754784339	3383.360564463014	857.2655067151159
369	6.15	468.2265955175941	3650.323870312732	568.9661755846283	841.4026537736588	3637.374682463764	560.0464204483314	1232.5800031285664	3704.3096469191078	623.8636432076182	1323.8292559140705	3616.1051603849846	603.5423673765699	1296.362064401889	3615.5375852846496	541.3689633143579	1260.2869406696575	3693.3628418490903	625.8565563442061	467.5849777361152	3529.975939918748	746.2709128872054	875.2935468602552	3543.8332463834568	739.9978924368588	1225.869991756963	3593.1672061968534	721.7279460000343	1325.5491109939608	3566.1963865294433	672.0992081029965	1285.9879284412657	3484.5474522384825	710.2438767456641	1267.7146960406806	3616.8118893660658	719.4567836238008	-125.94713519919465	3566.2796277211132	679.0852445740368	-382.8005128865378	3500.166698096878	638.3494280468973	-234.88262537442415	3443.9092011801185	607.8509789214461	-40.088047993584674	3647.818808519225	548.0985522723724	211.2480454726993	3778.39144380835	514.5866526726696	443.9155290960784	3656.774668380234	413.87411238690277	565.6588792914647	3537.860302593723	397.0913347386123	598.30750418894	3589.097192154744	392.960179016922	587.9708590900508	3678.213820897808	396.1775726545881	-17.719812712347206	3517.963954067942	847.628027505857	243.82609552728422	3464.6611760328583	864.0430898232793	488.57975754954816	3436.200920622101	855.2574780693909	594.8089143073405	3426.5116384752814	816.2087532470172	604.5674590677881	3415.2777379016106	829.2902071645041	608.2519148996136	3400.517816010059	872.4334209624802
370	6.166666666666667	464.2137934609712	3655.451869792271	571.6607264527902	846.0046944444832	3639.4960508307245	561.5451005981636	1232.6412362762017	3705.4685768906893	624.3897770760609	1322.8078496950532	3616.1223799655354	599.8413212964062	1289.8837632616746	3611.4341811273216	540.394547792538	1260.3249105524123	3693.901490633085	626.2482026327331	457.97736579593067	3528.537063687588	752.1952057772756	875.0572434616979	3537.798156109684	747.2790947231246	1219.0464375484842	3588.620698511647	720.4139828146225	1333.3124397518038	3582.0865385315537	685.9935399137107	1273.1329915695462	3463.7090518403998	703.194606864775	1267.7551158321835	3616.497262666446	719.1352078897512	-126.37876094856932	3550.611491289568	665.4845848373751	-382.8079990142804	3500.11912372783	638.256119659671	-234.63038134702327	3429.57777296031	595.2296316081016	-40.05710304330251	3647.867414044638	548.0529597097619	215.51547630908402	3773.5217045552586	512.1833786684572	444.16708781666034	3656.6791179613792	413.82709030385803	565.5978954894549	3537.619294516417	397.05066978786283	602.8051705202639	3593.189908302894	394.11300499011395	593.412025842409	3682.7886083716962	391.7459996971807	-17.734995051070204	3517.7149631409166	847.5086947199636	241.72428960208705	3450.8610046945814	850.5497176214844	488.73124231407746	3436.0422807546015	855.1550339889351	594.94770383649	3426.6048048222865	816.2410542197982	605.9676893096901	3399.360824220847	823.7873460986741	608.3021343174896	3400.5247498052236	872.552483351813
